M48
;GenerationSoftware,Autodesk,EAGLE,9.6.2*%
;CreationDate,2024-01-05T17:57:36Z*%
FMAT,2
ICI,OFF
METRIC,TZ,000.000
T6C0.305
T5C0.400
T4C0.650
T3C0.850
T2C1.016
T1C3.302
%
G90
M71
T1
X69088Y163576
X2540Y35560
X33020Y35560
X33020Y2540
X2540Y2540
X38608Y66548
X2540Y130556
X38608Y130556
X74676Y163576
X38608Y35560
X69088Y35560
X69088Y2540
X38608Y2540
X105156Y163576
X74676Y99568
X105156Y99568
X105156Y66548
X74676Y35560
X105156Y35560
X105156Y2540
X74676Y2540
X74676Y66548
X105156Y130556
X38608Y163576
X74676Y130556
X2540Y99568
X33020Y99568
X33020Y66548
X2540Y66548
X69088Y130556
X2540Y163576
X33020Y163576
X33020Y130556
X38608Y99568
X69088Y99568
X69088Y66548
T2
X73406Y91948
X106426Y84328
X106426Y81788
X106426Y79248
X106426Y76708
X106426Y74168
X106426Y71628
X1270Y138176
X1270Y140716
X1270Y143256
X1270Y145796
X1270Y148336
X106426Y135636
X1270Y150876
X1270Y153416
X1270Y155956
X34290Y148336
X34290Y145796
X34290Y143256
X34290Y140716
X34290Y138176
X34290Y135636
X37338Y138176
X37338Y140716
X37338Y143256
X37338Y145796
X37338Y148336
X37338Y150876
X37338Y153416
X37338Y155956
X70358Y148336
X70358Y145796
X70358Y143256
X70358Y140716
X70358Y138176
X70358Y135636
X73406Y138176
X73406Y140716
X73406Y143256
X73406Y145796
X73406Y148336
X1270Y10160
X1270Y12700
X1270Y15240
X1270Y17780
X1270Y20320
X1270Y22860
X1270Y25400
X1270Y27940
X34290Y20320
X34290Y17780
X34290Y15240
X34290Y12700
X34290Y10160
X34290Y7620
X73406Y150876
X73406Y153416
X73406Y155956
X106426Y148336
X37338Y10160
X37338Y12700
X37338Y15240
X37338Y17780
X37338Y20320
X37338Y22860
X37338Y25400
X37338Y27940
X70358Y20320
X70358Y17780
X70358Y15240
X70358Y12700
X70358Y10160
X70358Y7620
X106426Y145796
X106426Y143256
X106426Y140716
X106426Y138176
X73406Y10160
X73406Y12700
X73406Y15240
X73406Y17780
X73406Y20320
X73406Y22860
X73406Y25400
X73406Y27940
X106426Y20320
X106426Y17780
X106426Y15240
X106426Y12700
X106426Y10160
X106426Y7620
X1270Y74168
X1270Y76708
X1270Y79248
X1270Y81788
X1270Y84328
X1270Y86868
X1270Y89408
X1270Y91948
X34290Y84328
X34290Y81788
X34290Y79248
X34290Y76708
X34290Y74168
X34290Y71628
X37338Y74168
X37338Y76708
X37338Y79248
X37338Y81788
X37338Y84328
X37338Y86868
X37338Y89408
X37338Y91948
X70358Y84328
X70358Y81788
X70358Y79248
X70358Y76708
X70358Y74168
X70358Y71628
X73406Y74168
X73406Y76708
X73406Y79248
X73406Y81788
X73406Y84328
X73406Y86868
X73406Y89408
T3
X64238Y69723
X100306Y133731
X25170Y5715
X28170Y5715
X97306Y69723
X100306Y69723
X61238Y5715
X64238Y5715
X25170Y133731
X28170Y133731
X97306Y5715
X100306Y5715
X61238Y133731
X25170Y69723
X28170Y69723
X64238Y133731
X97306Y133731
X61238Y69723
T4
X20670Y4905
X50958Y4905
X56738Y4905
X87026Y4905
X14890Y4905
X20670Y68913
X50958Y68913
X56738Y68913
X92806Y68913
X14890Y68913
X50958Y132921
X56738Y132921
X14890Y132921
X20670Y132921
X87026Y132921
X92806Y132921
X87026Y68913
X92806Y4905
T5
X13462Y1255
X22098Y1255
X22098Y5435
X13462Y5435
X49530Y1255
X58166Y1255
X58166Y5435
X49530Y5435
X85598Y1255
X94234Y1255
X94234Y5435
X85598Y5435
X58166Y65263
X85598Y65263
X94234Y65263
X94234Y69443
X85598Y69443
X58166Y69443
X49530Y69443
X85598Y129271
X94234Y129271
X94234Y133451
X85598Y133451
X13462Y129271
X22098Y129271
X49530Y129271
X58166Y129271
X58166Y133451
X49530Y133451
X22098Y133451
X13462Y133451
X22098Y69443
X13462Y69443
X13462Y65263
X22098Y65263
X49530Y65263
T6
X41656Y16510
X41656Y15240
X41656Y12700
X46355Y30607
X54991Y29591
X56261Y29591
X57531Y29591
X58801Y29591
X58801Y28321
X57531Y28321
X56261Y28321
X54991Y28321
X46355Y29337
X47625Y30607
X54991Y27051
X56261Y27051
X57531Y27051
X58801Y27051
X58801Y25781
X57531Y25781
X56261Y25781
X54991Y25781
X47625Y29337
X48895Y30607
X50165Y29337
X50165Y30607
X48895Y29337
X59309Y34163
X59309Y33020
X58039Y33020
X58039Y34163
X56769Y34163
X56769Y33020
X55499Y33020
X55499Y34163
X54229Y34163
X54229Y33020
X52959Y33020
X52959Y34163
X51689Y34163
X51689Y33020
X50419Y33020
X50419Y34163
X49149Y34163
X49149Y33020
X49149Y35306
X50419Y35306
X51689Y35306
X52959Y35306
X52959Y36322
X51689Y36322
X50419Y36322
X49149Y36322
X49149Y37592
X50419Y37592
X51689Y37592
X52959Y37592
X55118Y38100
X56388Y36830
X47498Y38100
X44958Y38100
X46228Y36830
X62103Y44450
X63373Y44450
X63373Y43180
X62103Y43180
X62103Y45720
X63373Y45720
X41783Y19558
X41783Y20828
X41783Y21996
X41783Y23241
X41783Y24511
X38608Y41910
X39878Y40640
X42418Y40640
X37338Y43180
X46228Y39370
X44958Y40640
X44958Y43180
X43688Y41910
X52578Y40640
X53848Y39370
X56388Y39370
X57658Y40640
X64008Y39370
X66548Y39370
X69088Y39370
X37338Y40640
X41148Y41910
X39878Y43180
X50038Y43180
X52578Y43180
X55118Y43180
X57658Y43180
X60198Y40640
X70358Y40640
X69088Y41910
X58928Y36830
X61468Y39370
X67818Y38100
X66548Y36830
X67818Y33020
X67818Y30480
X67818Y27940
X70358Y38100
X69088Y31750
X70358Y33020
X69088Y29210
X39878Y38100
X41148Y36830
X39878Y33020
X41148Y27940
X41148Y1270
X39878Y5080
X37338Y7620
X39878Y10160
X46228Y11430
X48768Y11430
X56388Y11430
X65278Y12700
X62738Y10033
X53848Y7620
X43688Y6350
X46228Y1270
X46228Y6350
X43688Y11430
X44958Y10160
X44958Y2540
X41148Y26670
X41148Y31750
X41148Y29210
X41148Y34290
X42418Y38100
X62738Y38100
X65278Y38100
X67818Y40640
X66548Y34290
X66548Y31750
X66548Y29210
X47498Y12700
X50038Y12700
X52578Y12700
X55118Y12700
X57658Y12700
X60198Y12700
X62738Y12700
X52578Y9906
X52578Y8001
X54927Y8001
X37338Y5080
X38608Y8890
X36703Y16510
X36703Y13970
X36703Y19050
X36703Y26670
X36703Y21590
X36703Y24130
X70358Y5080
X43688Y13970
X44958Y12700
X64008Y13970
X39878Y16510
X41148Y3810
X42418Y43180
X60198Y43180
X65278Y40640
X65278Y43180
X67818Y43180
X70358Y43180
X48768Y39370
X38608Y39370
X37338Y38100
X41148Y39370
X43688Y39370
X70358Y30480
X70358Y27940
X69088Y26670
X66548Y26670
X67818Y25400
X70358Y25400
X69088Y24130
X66548Y24130
X66548Y21590
X66548Y19050
X67818Y22860
X67818Y20320
X67818Y17780
X64008Y11430
X65913Y17018
X65913Y10795
X60198Y4064
X64008Y8128
X65278Y5080
X60198Y1270
X62738Y1270
X65278Y1270
X66548Y2540
X64008Y3810
X70993Y11430
X70993Y13970
X70993Y8890
X66548Y9779
X57785Y6858
X67818Y13970
X67818Y7620
X39878Y7620
X51308Y39370
X60579Y34163
X60579Y33020
X61468Y36830
X48577Y5080
X61214Y10414
X60960Y7239
X53848Y4064
X53213Y4064
X54483Y4064
X52578Y4064
X55118Y4064
X53848Y9906
X43053Y3810
X52832Y6985
X54864Y6985
X53086Y5080
X54102Y5080
X56388Y3810
X53848Y1270
X37465Y33020
X40513Y25146
X46228Y7493
X46228Y10160
X65278Y10160
X77724Y17653
X77724Y16510
X77724Y15240
X77724Y12700
X82423Y30607
X91059Y29591
X92329Y29591
X93599Y29591
X94869Y29591
X94869Y28321
X93599Y28321
X92329Y28321
X91059Y28321
X82423Y29337
X83693Y30607
X91059Y27051
X92329Y27051
X93599Y27051
X94869Y27051
X94869Y25781
X93599Y25781
X92329Y25781
X91059Y25781
X83693Y29337
X84963Y30607
X86233Y29337
X86233Y30607
X84963Y29337
X95377Y34163
X95377Y33020
X94107Y33020
X94107Y34163
X92837Y34163
X92837Y33020
X91567Y33020
X91567Y34163
X90297Y34163
X90297Y33020
X89027Y33020
X89027Y34163
X87757Y34163
X87757Y33020
X86487Y33020
X86487Y34163
X85217Y34163
X85217Y33020
X85217Y35306
X86487Y35306
X87757Y35306
X89027Y35306
X89027Y36322
X87757Y36322
X86487Y36322
X85217Y36322
X85217Y37592
X86487Y37592
X87757Y37592
X89027Y37592
X91186Y38100
X92456Y36830
X83566Y38100
X81026Y38100
X82296Y36830
X98171Y44450
X99441Y44450
X99441Y43180
X98171Y43180
X98171Y45720
X99441Y45720
X77851Y19558
X77851Y20828
X77851Y21996
X77851Y23241
X77851Y24511
X74676Y41910
X75946Y40640
X78486Y40640
X73406Y43180
X82296Y39370
X81026Y40640
X81026Y43180
X79756Y41910
X88646Y40640
X89916Y39370
X92456Y39370
X93726Y40640
X100076Y39370
X102616Y39370
X105156Y39370
X73406Y40640
X77216Y41910
X75946Y43180
X86106Y43180
X88646Y43180
X91186Y43180
X93726Y43180
X96266Y40640
X106426Y40640
X105156Y41910
X94996Y36830
X97536Y39370
X103886Y38100
X102616Y36830
X103886Y33020
X103886Y30480
X103886Y27940
X106426Y38100
X105156Y31750
X106426Y33020
X105156Y29210
X75946Y38100
X77216Y36830
X75946Y33020
X77216Y27940
X77216Y1270
X75946Y5080
X73406Y7620
X75946Y10160
X82296Y11430
X84836Y11430
X92456Y11430
X101346Y12700
X98806Y10033
X89916Y7620
X79756Y6350
X82296Y1270
X82296Y6350
X79756Y11430
X81026Y10160
X81026Y2540
X77216Y26670
X77216Y31750
X77216Y29210
X77216Y34290
X78486Y38100
X98806Y38100
X101346Y38100
X103886Y40640
X102616Y34290
X102616Y31750
X102616Y29210
X83566Y12700
X86106Y12700
X88646Y12700
X91186Y12700
X93726Y12700
X96266Y12700
X98806Y12700
X88646Y9906
X88646Y8001
X90995Y8001
X73406Y5080
X74676Y8890
X72771Y16510
X72771Y13970
X72771Y19050
X72771Y26670
X72771Y21590
X72771Y24130
X106426Y5080
X79756Y13970
X81026Y12700
X100076Y13970
X75946Y16510
X77216Y3810
X78486Y43180
X96266Y43180
X101346Y40640
X101346Y43180
X103886Y43180
X106426Y43180
X84836Y39370
X74676Y39370
X73406Y38100
X77216Y39370
X79756Y39370
X106426Y30480
X106426Y27940
X105156Y26670
X102616Y26670
X103886Y25400
X106426Y25400
X105156Y24130
X102616Y24130
X102616Y21590
X102616Y19050
X103886Y22860
X103886Y20320
X103886Y17780
X100076Y11430
X101981Y17018
X101981Y10795
X96266Y4064
X100076Y8128
X101346Y5080
X96266Y1270
X98806Y1270
X101346Y1270
X102616Y2540
X100076Y3810
X107061Y11430
X107061Y13970
X107061Y8890
X102616Y9779
X93853Y6858
X103886Y13970
X103886Y7620
X75946Y7620
X87376Y39370
X96647Y34163
X96647Y33020
X97536Y36830
X84646Y5080
X97282Y10414
X97028Y7239
X89916Y4064
X89281Y4064
X90551Y4064
X88646Y4064
X91186Y4064
X89916Y9906
X79121Y3810
X88900Y6985
X90932Y6985
X89154Y5080
X90170Y5080
X92456Y3810
X89916Y1270
X73533Y33020
X76581Y25146
X82296Y7493
X82296Y10160
X101346Y10160
X5588Y81661
X5588Y80518
X5588Y79248
X5588Y76708
X10287Y94615
X18923Y93599
X20193Y93599
X21463Y93599
X22733Y93599
X22733Y92329
X21463Y92329
X20193Y92329
X18923Y92329
X10287Y93345
X11557Y94615
X18923Y91059
X20193Y91059
X21463Y91059
X22733Y91059
X22733Y89789
X21463Y89789
X20193Y89789
X18923Y89789
X11557Y93345
X12827Y94615
X14097Y93345
X14097Y94615
X12827Y93345
X23241Y98171
X23241Y97028
X21971Y97028
X21971Y98171
X20701Y98171
X20701Y97028
X19431Y97028
X19431Y98171
X18161Y98171
X18161Y97028
X16891Y97028
X16891Y98171
X15621Y98171
X15621Y97028
X14351Y97028
X14351Y98171
X13081Y98171
X13081Y97028
X13081Y99314
X14351Y99314
X15621Y99314
X16891Y99314
X16891Y100330
X15621Y100330
X14351Y100330
X13081Y100330
X13081Y101600
X14351Y101600
X15621Y101600
X16891Y101600
X19050Y102108
X20320Y100838
X11430Y102108
X8890Y102108
X10160Y100838
X26035Y108458
X27305Y108458
X27305Y107188
X26035Y107188
X26035Y109728
X27305Y109728
X5715Y83566
X5715Y84836
X5715Y86004
X5715Y87249
X5715Y88519
X2540Y105918
X3810Y104648
X6350Y104648
X1270Y107188
X10160Y103378
X8890Y104648
X8890Y107188
X7620Y105918
X16510Y104648
X17780Y103378
X20320Y103378
X21590Y104648
X27940Y103378
X30480Y103378
X33020Y103378
X1270Y104648
X5080Y105918
X3810Y107188
X13970Y107188
X16510Y107188
X19050Y107188
X21590Y107188
X24130Y104648
X34290Y104648
X33020Y105918
X22860Y100838
X25400Y103378
X31750Y102108
X30480Y100838
X31750Y97028
X31750Y94488
X31750Y91948
X34290Y102108
X33020Y95758
X34290Y97028
X33020Y93218
X3810Y102108
X5080Y100838
X3810Y97028
X5080Y91948
X5080Y65278
X3810Y69088
X1270Y71628
X3810Y74168
X10160Y75438
X12700Y75438
X20320Y75438
X29210Y76708
X26670Y74041
X17780Y71628
X7620Y70358
X10160Y65278
X10160Y70358
X7620Y75438
X8890Y74168
X8890Y66548
X5080Y90678
X5080Y95758
X5080Y93218
X5080Y98298
X6350Y102108
X26670Y102108
X29210Y102108
X31750Y104648
X30480Y98298
X30480Y95758
X30480Y93218
X11430Y76708
X13970Y76708
X16510Y76708
X19050Y76708
X21590Y76708
X24130Y76708
X26670Y76708
X16510Y73914
X16510Y72009
X18860Y72009
X1270Y69088
X2540Y72898
X635Y80518
X635Y77978
X635Y83058
X635Y90678
X635Y85598
X635Y88138
X34290Y69088
X7620Y77978
X8890Y76708
X27940Y77978
X3810Y80518
X5080Y67818
X6350Y107188
X24130Y107188
X29210Y104648
X29210Y107188
X31750Y107188
X34290Y107188
X12700Y103378
X2540Y103378
X1270Y102108
X5080Y103378
X7620Y103378
X34290Y94488
X34290Y91948
X33020Y90678
X30480Y90678
X31750Y89408
X34290Y89408
X33020Y88138
X30480Y88138
X30480Y85598
X30480Y83058
X31750Y86868
X31750Y84328
X31750Y81788
X27940Y75438
X29845Y81026
X29845Y74803
X24130Y68072
X27940Y72136
X29210Y69088
X24130Y65278
X26670Y65278
X29210Y65278
X30480Y66548
X27940Y67818
X34925Y75438
X34925Y77978
X34925Y72898
X30480Y73787
X21717Y70866
X31750Y77978
X31750Y71628
X3810Y71628
X15240Y103378
X24511Y98171
X24511Y97028
X25400Y100838
X12509Y69088
X25146Y74422
X24892Y71247
X17780Y68072
X17145Y68072
X18415Y68072
X16510Y68072
X19050Y68072
X17780Y73914
X6985Y67818
X16764Y70993
X18796Y70993
X17018Y69088
X18034Y69088
X20320Y67818
X17780Y65278
X1397Y97028
X4445Y89154
X10160Y71501
X10160Y74168
X29210Y74168
X41656Y81661
X41656Y80518
X41656Y79248
X41656Y76708
X46355Y94615
X54991Y93599
X56261Y93599
X57531Y93599
X58801Y93599
X58801Y92329
X57531Y92329
X56261Y92329
X54991Y92329
X46355Y93345
X47625Y94615
X54991Y91059
X56261Y91059
X57531Y91059
X58801Y91059
X58801Y89789
X57531Y89789
X56261Y89789
X54991Y89789
X47625Y93345
X48895Y94615
X50165Y93345
X50165Y94615
X48895Y93345
X59309Y98171
X59309Y97028
X58039Y97028
X58039Y98171
X56769Y98171
X56769Y97028
X55499Y97028
X55499Y98171
X54229Y98171
X54229Y97028
X52959Y97028
X52959Y98171
X51689Y98171
X51689Y97028
X50419Y97028
X50419Y98171
X49149Y98171
X49149Y97028
X49149Y99314
X50419Y99314
X51689Y99314
X52959Y99314
X52959Y100330
X51689Y100330
X50419Y100330
X49149Y100330
X49149Y101600
X50419Y101600
X51689Y101600
X52959Y101600
X55118Y102108
X56388Y100838
X47498Y102108
X44958Y102108
X46228Y100838
X62103Y108458
X63373Y108458
X63373Y107188
X62103Y107188
X62103Y109728
X63373Y109728
X41783Y83566
X41783Y84836
X41783Y86004
X41783Y87249
X41783Y88519
X38608Y105918
X39878Y104648
X42418Y104648
X37338Y107188
X46228Y103378
X44958Y104648
X44958Y107188
X43688Y105918
X52578Y104648
X53848Y103378
X56388Y103378
X57658Y104648
X64008Y103378
X66548Y103378
X69088Y103378
X37338Y104648
X41148Y105918
X39878Y107188
X50038Y107188
X52578Y107188
X55118Y107188
X57658Y107188
X60198Y104648
X70358Y104648
X69088Y105918
X58928Y100838
X61468Y103378
X67818Y102108
X66548Y100838
X67818Y97028
X67818Y94488
X67818Y91948
X70358Y102108
X69088Y95758
X70358Y97028
X69088Y93218
X39878Y102108
X41148Y100838
X39878Y97028
X41148Y91948
X41148Y65278
X39878Y69088
X37338Y71628
X39878Y74168
X46228Y75438
X48768Y75438
X56388Y75438
X65278Y76708
X62738Y74041
X53848Y71628
X43688Y70358
X46228Y65278
X46228Y70358
X43688Y75438
X44958Y74168
X44958Y66548
X41148Y90678
X41148Y95758
X41148Y93218
X41148Y98298
X42418Y102108
X62738Y102108
X65278Y102108
X67818Y104648
X66548Y98298
X66548Y95758
X66548Y93218
X47498Y76708
X50038Y76708
X52578Y76708
X55118Y76708
X57658Y76708
X60198Y76708
X62738Y76708
X52578Y73914
X52578Y72009
X54927Y72009
X37338Y69088
X38608Y72898
X36703Y80518
X36703Y77978
X36703Y83058
X36703Y90678
X36703Y85598
X36703Y88138
X70358Y69088
X43688Y77978
X44958Y76708
X64008Y77978
X39878Y80518
X41148Y67818
X42418Y107188
X60198Y107188
X65278Y104648
X65278Y107188
X67818Y107188
X70358Y107188
X48768Y103378
X38608Y103378
X37338Y102108
X41148Y103378
X43688Y103378
X70358Y94488
X70358Y91948
X69088Y90678
X66548Y90678
X67818Y89408
X70358Y89408
X69088Y88138
X66548Y88138
X66548Y85598
X66548Y83058
X67818Y86868
X67818Y84328
X67818Y81788
X64008Y75438
X65913Y81026
X65913Y74803
X60198Y68072
X64008Y72136
X65278Y69088
X60198Y65278
X62738Y65278
X65278Y65278
X66548Y66548
X64008Y67818
X70993Y75438
X70993Y77978
X70993Y72898
X66548Y73787
X57785Y70866
X67818Y77978
X67818Y71628
X39878Y71628
X51308Y103378
X60579Y98171
X60579Y97028
X61468Y100838
X48577Y69088
X61214Y74422
X60960Y71247
X53848Y68072
X53213Y68072
X54483Y68072
X52578Y68072
X55118Y68072
X53848Y73914
X43053Y67818
X52832Y70993
X54864Y70993
X53086Y69088
X54102Y69088
X56388Y67818
X53848Y65278
X37465Y97028
X40513Y89154
X46228Y71501
X46228Y74168
X65278Y74168
X77724Y81661
X77724Y80518
X77724Y79248
X77724Y76708
X82423Y94615
X91059Y93599
X92329Y93599
X93599Y93599
X94869Y93599
X94869Y92329
X93599Y92329
X92329Y92329
X91059Y92329
X82423Y93345
X83693Y94615
X91059Y91059
X92329Y91059
X93599Y91059
X94869Y91059
X94869Y89789
X93599Y89789
X92329Y89789
X91059Y89789
X83693Y93345
X84963Y94615
X86233Y93345
X86233Y94615
X84963Y93345
X95377Y98171
X95377Y97028
X94107Y97028
X94107Y98171
X92837Y98171
X92837Y97028
X91567Y97028
X91567Y98171
X90297Y98171
X90297Y97028
X89027Y97028
X89027Y98171
X87757Y98171
X87757Y97028
X86487Y97028
X86487Y98171
X85217Y98171
X85217Y97028
X85217Y99314
X86487Y99314
X87757Y99314
X89027Y99314
X89027Y100330
X87757Y100330
X86487Y100330
X85217Y100330
X85217Y101600
X86487Y101600
X87757Y101600
X89027Y101600
X91186Y102108
X92456Y100838
X83566Y102108
X81026Y102108
X82296Y100838
X98171Y108458
X99441Y108458
X99441Y107188
X98171Y107188
X98171Y109728
X99441Y109728
X77851Y83566
X77851Y84836
X77851Y86004
X77851Y87249
X77851Y88519
X74676Y105918
X75946Y104648
X78486Y104648
X73406Y107188
X82296Y103378
X81026Y104648
X81026Y107188
X79756Y105918
X88646Y104648
X89916Y103378
X92456Y103378
X93726Y104648
X100076Y103378
X102616Y103378
X105156Y103378
X73406Y104648
X77216Y105918
X75946Y107188
X86106Y107188
X88646Y107188
X91186Y107188
X93726Y107188
X96266Y104648
X106426Y104648
X105156Y105918
X94996Y100838
X97536Y103378
X103886Y102108
X102616Y100838
X103886Y97028
X103886Y94488
X103886Y91948
X106426Y102108
X105156Y95758
X106426Y97028
X105156Y93218
X75946Y102108
X77216Y100838
X75946Y97028
X77216Y91948
X77216Y65278
X75946Y69088
X73406Y71628
X75946Y74168
X82296Y75438
X84836Y75438
X92456Y75438
X101346Y76708
X98806Y74041
X89916Y71628
X79756Y70358
X82296Y65278
X82296Y70358
X79756Y75438
X81026Y74168
X81026Y66548
X77216Y90678
X77216Y95758
X77216Y93218
X77216Y98298
X78486Y102108
X98806Y102108
X101346Y102108
X103886Y104648
X102616Y98298
X102616Y95758
X102616Y93218
X83566Y76708
X86106Y76708
X88646Y76708
X91186Y76708
X93726Y76708
X96266Y76708
X98806Y76708
X88646Y73914
X88646Y72009
X90995Y72009
X73406Y69088
X74676Y72898
X72771Y80518
X72771Y77978
X72771Y83058
X72771Y90678
X72771Y85598
X72771Y88138
X106426Y69088
X79756Y77978
X81026Y76708
X100076Y77978
X75946Y80518
X77216Y67818
X78486Y107188
X96266Y107188
X101346Y104648
X101346Y107188
X103886Y107188
X106426Y107188
X84836Y103378
X74676Y103378
X73406Y102108
X77216Y103378
X79756Y103378
X106426Y94488
X106426Y91948
X105156Y90678
X102616Y90678
X103886Y89408
X106426Y89408
X105156Y88138
X102616Y88138
X102616Y85598
X102616Y83058
X103886Y86868
X103886Y84328
X103886Y81788
X100076Y75438
X101981Y81026
X101981Y74803
X96266Y68072
X100076Y72136
X101346Y69088
X96266Y65278
X98806Y65278
X101346Y65278
X102616Y66548
X100076Y67818
X107061Y75438
X107061Y77978
X107061Y72898
X102616Y73787
X93853Y70866
X103886Y77978
X103886Y71628
X75946Y71628
X87376Y103378
X96647Y98171
X96647Y97028
X97536Y100838
X84646Y69088
X97282Y74422
X97028Y71247
X89916Y68072
X89281Y68072
X90551Y68072
X88646Y68072
X91186Y68072
X89916Y73914
X79121Y67818
X88900Y70993
X90932Y70993
X89154Y69088
X90170Y69088
X92456Y67818
X89916Y65278
X73533Y97028
X76581Y89154
X82296Y71501
X82296Y74168
X101346Y74168
X5588Y145669
X5588Y144526
X5588Y143256
X5588Y140716
X10287Y158623
X18923Y157607
X20193Y157607
X21463Y157607
X22733Y157607
X22733Y156337
X21463Y156337
X20193Y156337
X18923Y156337
X10287Y157353
X11557Y158623
X18923Y155067
X20193Y155067
X21463Y155067
X22733Y155067
X22733Y153797
X21463Y153797
X20193Y153797
X18923Y153797
X11557Y157353
X12827Y158623
X14097Y157353
X14097Y158623
X12827Y157353
X23241Y162179
X23241Y161036
X21971Y161036
X21971Y162179
X20701Y162179
X20701Y161036
X19431Y161036
X19431Y162179
X18161Y162179
X18161Y161036
X16891Y161036
X16891Y162179
X15621Y162179
X15621Y161036
X14351Y161036
X14351Y162179
X13081Y162179
X13081Y161036
X13081Y163322
X14351Y163322
X15621Y163322
X16891Y163322
X16891Y164338
X15621Y164338
X14351Y164338
X13081Y164338
X13081Y165608
X14351Y165608
X15621Y165608
X16891Y165608
X19050Y166116
X20320Y164846
X11430Y166116
X8890Y166116
X10160Y164846
X26035Y172466
X27305Y172466
X27305Y171196
X26035Y171196
X26035Y173736
X27305Y173736
X5715Y147574
X5715Y148844
X5715Y150012
X5715Y151257
X5715Y152527
X2540Y169926
X3810Y168656
X6350Y168656
X1270Y171196
X10160Y167386
X8890Y168656
X8890Y171196
X7620Y169926
X16510Y168656
X17780Y167386
X20320Y167386
X21590Y168656
X27940Y167386
X30480Y167386
X33020Y167386
X1270Y168656
X5080Y169926
X3810Y171196
X13970Y171196
X16510Y171196
X19050Y171196
X21590Y171196
X24130Y168656
X34290Y168656
X33020Y169926
X22860Y164846
X25400Y167386
X31750Y166116
X30480Y164846
X31750Y161036
X31750Y158496
X31750Y155956
X34290Y166116
X33020Y159766
X34290Y161036
X33020Y157226
X3810Y166116
X5080Y164846
X3810Y161036
X5080Y155956
X5080Y129286
X3810Y133096
X1270Y135636
X3810Y138176
X10160Y139446
X12700Y139446
X20320Y139446
X29210Y140716
X26670Y138049
X17780Y135636
X7620Y134366
X10160Y129286
X10160Y134366
X7620Y139446
X8890Y138176
X8890Y130556
X5080Y154686
X5080Y159766
X5080Y157226
X5080Y162306
X6350Y166116
X26670Y166116
X29210Y166116
X31750Y168656
X30480Y162306
X30480Y159766
X30480Y157226
X11430Y140716
X13970Y140716
X16510Y140716
X19050Y140716
X21590Y140716
X24130Y140716
X26670Y140716
X16510Y137922
X16510Y136017
X18860Y136017
X1270Y133096
X2540Y136906
X635Y144526
X635Y141986
X635Y147066
X635Y154686
X635Y149606
X635Y152146
X34290Y133096
X7620Y141986
X8890Y140716
X27940Y141986
X3810Y144526
X5080Y131826
X6350Y171196
X24130Y171196
X29210Y168656
X29210Y171196
X31750Y171196
X34290Y171196
X12700Y167386
X2540Y167386
X1270Y166116
X5080Y167386
X7620Y167386
X34290Y158496
X34290Y155956
X33020Y154686
X30480Y154686
X31750Y153416
X34290Y153416
X33020Y152146
X30480Y152146
X30480Y149606
X30480Y147066
X31750Y150876
X31750Y148336
X31750Y145796
X27940Y139446
X29845Y145034
X29845Y138811
X24130Y132080
X27940Y136144
X29210Y133096
X24130Y129286
X26670Y129286
X29210Y129286
X30480Y130556
X27940Y131826
X34925Y139446
X34925Y141986
X34925Y136906
X30480Y137795
X21717Y134874
X31750Y141986
X31750Y135636
X3810Y135636
X15240Y167386
X24511Y162179
X24511Y161036
X25400Y164846
X12509Y133096
X25146Y138430
X24892Y135255
X17780Y132080
X17145Y132080
X18415Y132080
X16510Y132080
X19050Y132080
X17780Y137922
X6985Y131826
X16764Y135001
X18796Y135001
X17018Y133096
X18034Y133096
X20320Y131826
X17780Y129286
X1397Y161036
X4445Y153162
X10160Y135509
X10160Y138176
X29210Y138176
X41656Y145669
X41656Y144526
X41656Y143256
X41656Y140716
X46355Y158623
X54991Y157607
X56261Y157607
X57531Y157607
X58801Y157607
X58801Y156337
X57531Y156337
X56261Y156337
X54991Y156337
X46355Y157353
X47625Y158623
X54991Y155067
X56261Y155067
X57531Y155067
X58801Y155067
X58801Y153797
X57531Y153797
X56261Y153797
X54991Y153797
X47625Y157353
X48895Y158623
X50165Y157353
X50165Y158623
X48895Y157353
X59309Y162179
X59309Y161036
X58039Y161036
X58039Y162179
X56769Y162179
X56769Y161036
X55499Y161036
X55499Y162179
X54229Y162179
X54229Y161036
X52959Y161036
X52959Y162179
X51689Y162179
X51689Y161036
X50419Y161036
X50419Y162179
X49149Y162179
X49149Y161036
X49149Y163322
X50419Y163322
X51689Y163322
X52959Y163322
X52959Y164338
X51689Y164338
X50419Y164338
X49149Y164338
X49149Y165608
X50419Y165608
X51689Y165608
X52959Y165608
X55118Y166116
X56388Y164846
X47498Y166116
X44958Y166116
X46228Y164846
X62103Y172466
X63373Y172466
X63373Y171196
X62103Y171196
X62103Y173736
X63373Y173736
X41783Y147574
X41783Y148844
X41783Y150012
X41783Y151257
X41783Y152527
X38608Y169926
X39878Y168656
X42418Y168656
X37338Y171196
X46228Y167386
X44958Y168656
X44958Y171196
X43688Y169926
X52578Y168656
X53848Y167386
X56388Y167386
X57658Y168656
X64008Y167386
X66548Y167386
X69088Y167386
X37338Y168656
X41148Y169926
X39878Y171196
X50038Y171196
X52578Y171196
X55118Y171196
X57658Y171196
X60198Y168656
X70358Y168656
X69088Y169926
X58928Y164846
X61468Y167386
X67818Y166116
X66548Y164846
X67818Y161036
X67818Y158496
X67818Y155956
X70358Y166116
X69088Y159766
X70358Y161036
X69088Y157226
X39878Y166116
X41148Y164846
X39878Y161036
X41148Y155956
X41148Y129286
X39878Y133096
X37338Y135636
X5588Y17653
X46228Y139446
X48768Y139446
X56388Y139446
X65278Y140716
X62738Y138049
X53848Y135636
X43688Y134366
X46228Y129286
X46228Y134366
X43688Y139446
X44958Y138176
X44958Y130556
X41148Y154686
X41148Y159766
X41148Y157226
X41148Y162306
X42418Y166116
X62738Y166116
X65278Y166116
X67818Y168656
X66548Y162306
X66548Y159766
X66548Y157226
X47498Y140716
X50038Y140716
X52578Y140716
X55118Y140716
X57658Y140716
X60198Y140716
X62738Y140716
X52578Y137922
X52578Y136017
X54927Y136017
X37338Y133096
X38608Y136906
X36703Y144526
X36703Y141986
X36703Y147066
X36703Y154686
X36703Y149606
X36703Y152146
X70358Y133096
X43688Y141986
X44958Y140716
X64008Y141986
X39878Y144526
X41148Y131826
X42418Y171196
X60198Y171196
X65278Y168656
X65278Y171196
X67818Y171196
X70358Y171196
X48768Y167386
X38608Y167386
X37338Y166116
X41148Y167386
X43688Y167386
X70358Y158496
X70358Y155956
X69088Y154686
X66548Y154686
X67818Y153416
X70358Y153416
X69088Y152146
X66548Y152146
X66548Y149606
X66548Y147066
X67818Y150876
X67818Y148336
X67818Y145796
X64008Y139446
X65913Y145034
X65913Y138811
X60198Y132080
X64008Y136144
X65278Y133096
X60198Y129286
X62738Y129286
X65278Y129286
X66548Y130556
X64008Y131826
X70993Y139446
X70993Y141986
X70993Y136906
X66548Y137795
X57785Y134874
X67818Y141986
X67818Y135636
X39878Y135636
X51308Y167386
X60579Y162179
X60579Y161036
X61468Y164846
X48577Y133096
X61214Y138430
X60960Y135255
X53848Y132080
X53213Y132080
X54483Y132080
X52578Y132080
X55118Y132080
X53848Y137922
X43053Y131826
X52832Y135001
X54864Y135001
X53086Y133096
X54102Y133096
X56388Y131826
X53848Y129286
X37465Y161036
X40513Y153162
X46228Y135509
X46228Y138176
X65278Y138176
X77724Y145669
X77724Y144526
X77724Y143256
X77724Y140716
X82423Y158623
X91059Y157607
X92329Y157607
X93599Y157607
X94869Y157607
X94869Y156337
X93599Y156337
X92329Y156337
X91059Y156337
X82423Y157353
X83693Y158623
X91059Y155067
X92329Y155067
X93599Y155067
X94869Y155067
X94869Y153797
X93599Y153797
X92329Y153797
X91059Y153797
X83693Y157353
X84963Y158623
X86233Y157353
X86233Y158623
X84963Y157353
X95377Y162179
X95377Y161036
X94107Y161036
X94107Y162179
X92837Y162179
X92837Y161036
X91567Y161036
X91567Y162179
X90297Y162179
X90297Y161036
X89027Y161036
X89027Y162179
X87757Y162179
X87757Y161036
X86487Y161036
X86487Y162179
X85217Y162179
X85217Y161036
X85217Y163322
X86487Y163322
X87757Y163322
X89027Y163322
X89027Y164338
X87757Y164338
X86487Y164338
X85217Y164338
X85217Y165608
X86487Y165608
X87757Y165608
X89027Y165608
X91186Y166116
X92456Y164846
X83566Y166116
X81026Y166116
X82296Y164846
X98171Y172466
X99441Y172466
X99441Y171196
X98171Y171196
X98171Y173736
X99441Y173736
X77851Y147574
X77851Y148844
X77851Y150012
X77851Y151257
X77851Y152527
X74676Y169926
X75946Y168656
X78486Y168656
X73406Y171196
X82296Y167386
X81026Y168656
X81026Y171196
X79756Y169926
X88646Y168656
X89916Y167386
X92456Y167386
X93726Y168656
X100076Y167386
X102616Y167386
X105156Y167386
X73406Y168656
X77216Y169926
X75946Y171196
X86106Y171196
X88646Y171196
X91186Y171196
X93726Y171196
X96266Y168656
X106426Y168656
X105156Y169926
X94996Y164846
X97536Y167386
X103886Y166116
X102616Y164846
X103886Y161036
X103886Y158496
X103886Y155956
X106426Y166116
X105156Y159766
X106426Y161036
X105156Y157226
X75946Y166116
X77216Y164846
X75946Y161036
X77216Y155956
X77216Y129286
X75946Y133096
X73406Y135636
X75946Y138176
X82296Y139446
X84836Y139446
X92456Y139446
X101346Y140716
X98806Y138049
X89916Y135636
X79756Y134366
X82296Y129286
X82296Y134366
X79756Y139446
X81026Y138176
X81026Y130556
X77216Y154686
X77216Y159766
X77216Y157226
X77216Y162306
X78486Y166116
X98806Y166116
X101346Y166116
X103886Y168656
X102616Y162306
X102616Y159766
X102616Y157226
X83566Y140716
X86106Y140716
X88646Y140716
X91186Y140716
X93726Y140716
X96266Y140716
X98806Y140716
X88646Y137922
X88646Y136017
X90995Y136017
X73406Y133096
X74676Y136906
X72771Y144526
X72771Y141986
X72771Y147066
X72771Y154686
X72771Y149606
X72771Y152146
X106426Y133096
X79756Y141986
X81026Y140716
X100076Y141986
X75946Y144526
X77216Y131826
X78486Y171196
X96266Y171196
X101346Y168656
X101346Y171196
X103886Y171196
X106426Y171196
X84836Y167386
X74676Y167386
X73406Y166116
X77216Y167386
X39878Y138176
X106426Y158496
X106426Y155956
X105156Y154686
X102616Y154686
X103886Y153416
X106426Y153416
X105156Y152146
X102616Y152146
X102616Y149606
X102616Y147066
X103886Y150876
X103886Y148336
X103886Y145796
X100076Y139446
X101981Y145034
X101981Y138811
X96266Y132080
X100076Y136144
X101346Y133096
X96266Y129286
X98806Y129286
X101346Y129286
X102616Y130556
X100076Y131826
X107061Y139446
X107061Y141986
X107061Y136906
X102616Y137795
X93853Y134874
X103886Y141986
X103886Y135636
X75946Y135636
X87376Y167386
X96647Y162179
X96647Y161036
X97536Y164846
X84646Y133096
X97282Y138430
X97028Y135255
X89916Y132080
X89281Y132080
X90551Y132080
X88646Y132080
X91186Y132080
X89916Y137922
X79121Y131826
X88900Y135001
X90932Y135001
X89154Y133096
X90170Y133096
X92456Y131826
X89916Y129286
X73533Y161036
X76581Y153162
X82296Y135509
X82296Y138176
X101346Y138176
X5588Y16510
X5588Y15240
X5588Y12700
X10287Y30607
X18923Y29591
X20193Y29591
X21463Y29591
X22733Y29591
X22733Y28321
X21463Y28321
X20193Y28321
X18923Y28321
X10287Y29337
X11557Y30607
X18923Y27051
X20193Y27051
X21463Y27051
X22733Y27051
X22733Y25781
X21463Y25781
X20193Y25781
X18923Y25781
X11557Y29337
X12827Y30607
X14097Y29337
X14097Y30607
X12827Y29337
X23241Y34163
X23241Y33020
X21971Y33020
X21971Y34163
X20701Y34163
X20701Y33020
X19431Y33020
X19431Y34163
X18161Y34163
X18161Y33020
X16891Y33020
X16891Y34163
X15621Y34163
X15621Y33020
X14351Y33020
X14351Y34163
X13081Y34163
X13081Y33020
X13081Y35306
X14351Y35306
X15621Y35306
X16891Y35306
X16891Y36322
X15621Y36322
X14351Y36322
X13081Y36322
X13081Y37592
X14351Y37592
X15621Y37592
X16891Y37592
X19050Y38100
X20320Y36830
X11430Y38100
X8890Y38100
X10160Y36830
X26035Y44450
X27305Y44450
X27305Y43180
X26035Y43180
X26035Y45720
X27305Y45720
X5715Y19558
X5715Y20828
X5715Y21996
X5715Y23241
X5715Y24511
X2540Y41910
X3810Y40640
X6350Y40640
X1270Y43180
X10160Y39370
X8890Y40640
X8890Y43180
X7620Y41910
X16510Y40640
X17780Y39370
X20320Y39370
X21590Y40640
X27940Y39370
X30480Y39370
X33020Y39370
X1270Y40640
X5080Y41910
X3810Y43180
X13970Y43180
X16510Y43180
X19050Y43180
X21590Y43180
X24130Y40640
X34290Y40640
X33020Y41910
X22860Y36830
X25400Y39370
X31750Y38100
X30480Y36830
X31750Y33020
X31750Y30480
X31750Y27940
X34290Y38100
X33020Y31750
X34290Y33020
X33020Y29210
X3810Y38100
X5080Y36830
X3810Y33020
X5080Y27940
X5080Y1270
X3810Y5080
X1270Y7620
X3810Y10160
X10160Y11430
X12700Y11430
X20320Y11430
X29210Y12700
X26670Y10033
X17780Y7620
X7620Y6350
X10160Y1270
X10160Y6350
X7620Y11430
X8890Y10160
X8890Y2540
X5080Y26670
X5080Y31750
X5080Y29210
X5080Y34290
X6350Y38100
X26670Y38100
X29210Y38100
X31750Y40640
X30480Y34290
X30480Y31750
X30480Y29210
X11430Y12700
X13970Y12700
X16510Y12700
X19050Y12700
X21590Y12700
X24130Y12700
X26670Y12700
X16510Y9906
X16510Y8001
X18860Y8001
X1270Y5080
X2540Y8890
X635Y16510
X635Y13970
X635Y19050
X635Y26670
X635Y21590
X635Y24130
X34290Y5080
X7620Y13970
X8890Y12700
X27940Y13970
X3810Y16510
X5080Y3810
X6350Y43180
X24130Y43180
X29210Y40640
X29210Y43180
X31750Y43180
X34290Y43180
X12700Y39370
X2540Y39370
X1270Y38100
X5080Y39370
X7620Y39370
X34290Y30480
X34290Y27940
X33020Y26670
X30480Y26670
X31750Y25400
X34290Y25400
X33020Y24130
X30480Y24130
X30480Y21590
X30480Y19050
X31750Y22860
X31750Y20320
X31750Y17780
X27940Y11430
X29845Y17018
X29845Y10795
X24130Y4064
X27940Y8128
X29210Y5080
X24130Y1270
X26670Y1270
X29210Y1270
X30480Y2540
X27940Y3810
X34925Y11430
X34925Y13970
X34925Y8890
X30480Y9779
X21717Y6858
X31750Y13970
X31750Y7620
X3810Y7620
X15240Y39370
X24511Y34163
X24511Y33020
X25400Y36830
X12509Y5080
X25146Y10414
X24892Y7239
X17780Y4064
X17145Y4064
X18415Y4064
X16510Y4064
X19050Y4064
X17780Y9906
X6985Y3810
X16764Y6985
X18796Y6985
X17018Y5080
X18034Y5080
X20320Y3810
X17780Y1270
X1397Y33020
X4445Y25146
X10160Y7493
X10160Y10160
X29210Y10160
X41656Y17653
X79756Y167386
M30